<?xml version="1.0" encoding="UTF-8" standalone="no"?>
<svg
   sodipodi:docname="DarkWaves.svg"
   id="svg8"
   version="1.1"
   viewBox="0 0 1016 635.00001"
   height="2400"
   width="3840"
   xmlns:inkscape="http://www.inkscape.org/namespaces/inkscape"
   xmlns:sodipodi="http://sodipodi.sourceforge.net/DTD/sodipodi-0.dtd"
   xmlns:xlink="http://www.w3.org/1999/xlink"
   xmlns="http://www.w3.org/2000/svg"
   xmlns:svg="http://www.w3.org/2000/svg">
  <defs
     id="defs2">
    <linearGradient
       inkscape:collect="always"
       id="linearGradient9614">
      <stop
         style="stop-color:#2d8dbb;stop-opacity:1;"
         offset="0"
         id="stop9610" />
      <stop
         style="stop-color:#472dbb;stop-opacity:1;"
         offset="1"
         id="stop9612" />
    </linearGradient>
    <linearGradient
       inkscape:collect="always"
       xlink:href="#linearGradient9614"
       id="linearGradient9616"
       x1="497.31802"
       y1="-34.427197"
       x2="497.31802"
       y2="587.14044"
       gradientUnits="userSpaceOnUse"
       gradientTransform="scale(1,1.1111111)" />
  </defs>
  <sodipodi:namedview
     inkscape:window-maximized="1"
     inkscape:window-y="32"
     inkscape:window-x="1920"
     inkscape:window-height="1011"
     inkscape:window-width="1920"
     units="px"
     showgrid="false"
     inkscape:document-rotation="0"
     inkscape:current-layer="layer2"
     inkscape:document-units="px"
     inkscape:cy="1297.3737"
     inkscape:cx="1876.4454"
     inkscape:zoom="0.15801152"
     inkscape:pageshadow="2"
     inkscape:pageopacity="0.0"
     borderopacity="1.0"
     bordercolor="#666666"
     pagecolor="#ffffff"
     id="base"
     showguides="false"
     inkscape:pagecheckerboard="0"
     inkscape:showpageshadow="2"
     inkscape:deskcolor="#d1d1d1" />
  <g
     inkscape:groupmode="layer"
     id="layer1"
     inkscape:label="Background"
     style="display:inline">
    <g
       inkscape:groupmode="layer"
       id="layer5"
       inkscape:label="Colour"
       style="display:inline">
      <rect
         style="display:inline;opacity:1;mix-blend-mode:normal;fill:url(#linearGradient9616);fill-opacity:1;stroke:none;stroke-width:2.56127;stroke-linecap:round;stroke-linejoin:round;stroke-miterlimit:4;stroke-dasharray:none;stroke-opacity:1;paint-order:markers fill stroke"
         id="rect957"
         width="1016"
         height="635"
         x="-3.5527137e-15"
         y="0" />
      <rect
         style="display:none;opacity:0.1;fill:#000000;fill-opacity:1;stroke:none;stroke-width:2.56127;stroke-linecap:round;stroke-linejoin:round;stroke-miterlimit:4;stroke-dasharray:none;stroke-opacity:1;paint-order:markers fill stroke"
         id="rect1903"
         width="1016"
         height="635"
         x="-3.5527137e-15"
         y="0" />
    </g>
    <g
       inkscape:groupmode="layer"
       id="layer2"
       inkscape:label="Waves"
       style="display:inline;opacity:0.75">
      <path
         id="path3454"
         style="opacity:0.1;fill:#ffffff;stroke:none;stroke-width:0;stroke-linecap:butt;stroke-linejoin:miter;stroke-miterlimit:4;stroke-dasharray:none;stroke-opacity:1"
         d="M 0 0 L 0 245.61085 C 6.0159225e-14 245.61085 113.99347 195.31298 222.91714 196.42109 C 248.61586 196.68253 274.01464 199.84656 297.58546 207.16668 C 413.51536 191.60147 464.66347 92.35037 650.99179 121.18847 C 779.45793 141.07122 1016 4.5119419e-14 1016 0 L 0 0 z M 297.58546 207.16668 C 295.47238 207.4504 293.3328 207.69996 291.17706 207.92891 C 293.33442 207.7021 295.47236 207.4504 297.58546 207.16668 z M 288.39739 208.20796 C 287.7211 208.27134 287.04325 208.33286 286.36237 208.39038 C 287.04366 208.33345 287.72063 208.27066 288.39739 208.20796 z M 281.26862 208.76762 C 272.1332 209.32572 263.31209 209.9521 254.79427 210.64192 C 263.31209 209.9521 272.13319 209.32572 281.26862 208.76762 z M 254.79427 210.64192 C 246.27645 211.33175 238.06174 212.08516 230.13893 212.89708 C 238.06175 212.08516 246.27644 211.33175 254.79427 210.64192 z M 230.13893 212.89708 C 214.2933 214.52093 199.61518 216.37919 186.01397 218.4337 C 199.61519 216.37919 214.29328 214.52093 230.13893 212.89708 z M 186.01397 218.4337 C 179.21337 219.46095 172.68185 220.53731 166.40845 221.65779 C 172.68185 220.53731 179.21336 219.46095 186.01397 218.4337 z M 166.40845 221.65779 C 160.13505 222.77827 154.11994 223.94289 148.35115 225.14698 C 154.11995 223.94289 160.13505 222.77827 166.40845 221.65779 z M 148.35115 225.14698 C 142.58236 226.35107 137.06013 227.59478 131.77335 228.87285 C 137.06014 227.59478 142.58236 226.35107 148.35115 225.14698 z M 131.77335 228.87285 C 126.48657 230.15092 121.43524 231.46352 116.60787 232.80595 C 121.43524 231.46351 126.48657 230.15093 131.77335 228.87285 z M 116.60787 232.80595 C 111.7805 234.14838 107.17705 235.52067 102.78649 236.91784 C 107.17705 235.52067 111.7805 234.14838 116.60787 232.80595 z M 102.78649 236.91784 C 94.005372 239.71217 86.075249 242.60622 78.905779 245.56176 C 86.075253 242.60622 94.005366 239.71218 102.78649 236.91784 z M 78.905779 245.56176 C 75.321043 247.03952 71.926257 248.53279 68.710535 250.03642 C 71.926258 248.53279 75.321042 247.03953 78.905779 245.56176 z M 68.710535 250.03642 C 62.279092 253.04368 56.563292 256.09296 51.472311 259.14594 C 56.563293 256.09295 62.27909 253.04369 68.710535 250.03642 z M 51.472311 259.14594 C 48.92682 260.67243 46.537178 262.19995 44.292904 263.72344 C 46.537178 262.19995 48.92682 260.67243 51.472311 259.14594 z M 44.292904 263.72344 C 42.04863 265.24693 39.949384 266.76631 37.983728 268.27717 C 39.949384 266.76631 42.04863 265.24693 44.292904 263.72344 z M 37.983728 268.27717 C 36.018073 269.78802 34.186208 271.2901 32.476571 272.7787 C 34.186207 271.29009 36.018073 269.78803 37.983728 268.27717 z M 32.476571 272.7787 C 30.772829 274.26217 29.191645 275.73229 27.719755 277.18412 C 29.191667 275.73226 30.772799 274.2622 32.476571 272.7787 z M 27.686682 277.21667 C 26.217294 278.66739 24.856798 280.0999 23.596493 281.50943 C 24.856759 280.09994 26.217345 278.66735 27.686682 277.21667 z M 23.596493 281.50943 C 22.331097 282.92466 21.16587 284.31665 20.088696 285.68076 C 21.165804 284.31674 22.33119 282.92456 23.596493 281.50943 z M 20.088696 285.68127 C 19.011624 287.04526 18.022578 288.38139 17.1111 289.68465 C 18.02265 288.38128 19.011524 287.04538 20.088696 285.68127 z M 17.1111 289.68465 C 16.19955 290.98801 15.365052 292.25866 14.596525 293.49165 C 15.365051 292.25866 16.199551 290.98801 17.1111 289.68465 z M 14.596525 293.49165 C 13.827999 294.72464 13.125376 295.91983 12.477275 297.07283 C 13.125375 295.91983 13.828 294.72464 14.596525 293.49165 z M 10.685136 300.40027 C 9.584684 302.52686 8.6572248 304.46468 7.8124431 306.17511 C 8.6572804 304.46456 9.584588 302.52703 10.685136 300.40027 z M 3.0168701 313.39793 C 3.0137179 313.40026 3.0107232 313.40284 3.0075684 313.40516 C 3.0107069 313.40285 3.0137341 313.40025 3.0168701 313.39793 z " />
      <path
         id="path5017"
         style="opacity:0.2;fill:#ffffff;stroke:none;stroke-width:0;stroke-linecap:butt;stroke-linejoin:miter;stroke-miterlimit:4;stroke-dasharray:none;stroke-opacity:1"
         d="M 297.58546 207.16668 C 292.28551 207.87828 286.8585 208.42612 281.26862 208.76762 C -11.065102 226.62687 18.599322 314.39218 0 314.39218 L 0 571.5 L 0 635 L 1016 635 L 1016 571.5 L 1016 456.36853 C 857.20829 456.36853 878.6762 380.64085 734.73139 380.64085 C 602.40418 380.64085 504.42585 386.09096 365.00821 246.67332 C 345.93005 227.59514 322.80528 214.99893 297.58546 207.16668 z " />
      <path
         id="path5922"
         style="opacity:0.2;fill:#ffffff;stroke:none;stroke-width:0;stroke-linecap:butt;stroke-linejoin:miter;stroke-miterlimit:4;stroke-dasharray:none;stroke-opacity:1"
         d="M 1016 245.61085 C 1016 245.61085 849.24141 282.12665 785.43475 384.56206 C 784.39638 386.22906 783.38299 387.91242 782.40031 389.61446 C 774.18124 403.85031 763.71314 414.73627 751.51537 423.21603 C 749.99065 424.276 748.43864 425.29795 746.86088 426.28458 C 732.66113 435.16412 716.35414 441.14871 698.67984 445.58159 C 694.75218 446.56668 690.75689 447.47483 686.70228 448.32148 C 658.32009 454.24793 627.02599 457.14432 595.60344 462.07051 C 588.87 463.12612 582.1303 464.27509 575.41243 465.56693 C 566.45526 467.28941 557.53641 469.26614 548.72052 471.61514 C 544.31257 472.78964 539.93059 474.05709 535.5823 475.43248 C 529.05987 477.49558 522.61338 479.8014 516.27082 482.3995 C 512.04244 484.13156 507.86019 485.99346 503.73205 488.00019 C 499.6039 490.00692 495.53001 492.15814 491.51832 494.46905 C 487.50663 496.77995 483.55722 499.25037 479.67822 501.89495 C 477.73871 503.21724 475.81649 504.5832 473.9132 505.99444 C 472.01002 507.40561 470.12525 508.86247 468.26031 510.36627 C 464.53021 513.37404 460.87865 516.5709 457.31369 519.97137 C 455.53112 521.67169 453.7706 523.42282 452.03236 525.22686 C 445.07976 532.44262 438.48984 540.50251 432.32762 549.52512 C 429.2465 554.03643 426.2721 558.78828 423.41292 563.79557 C 421.98333 566.2992 420.58269 568.86684 419.21162 571.5 C 403.07155 596.95926 364.21653 600.19013 364.21653 635 L 1016 635 L 1016 571.5 L 1016 456.36853 L 1016 245.61085 z " />
      <path
         id="path6726"
         style="opacity:0.1;fill:#ffffff;stroke:none;stroke-width:0;stroke-linecap:butt;stroke-linejoin:miter;stroke-miterlimit:4;stroke-dasharray:none;stroke-opacity:1"
         d="M 0 377.11083 L 0 571.5 L 0 635 L 52.980746 635 L 341.92073 635 C 343.4278 606.86323 307.59027 606.02909 293.94433 571.5 C 255.77702 478.15177 197.19542 529.91498 136.78028 501.7301 C 92.321035 480.98896 114.28927 377.11083 0 377.11083 z " />
      <path
         id="path3215"
         style="opacity:0.25;fill:#ffffff;stroke:none;stroke-width:0;stroke-linecap:butt;stroke-linejoin:miter;stroke-miterlimit:4;stroke-dasharray:none;stroke-opacity:1"
         d="M 222.91714 196.42109 C 113.99336 195.31298 8.02123e-14 245.61085 0 245.61085 L 0 314.39218 C 18.599322 314.39218 -11.065102 226.62687 281.26862 208.76762 C 286.8585 208.42612 292.28551 207.87828 297.58546 207.16668 C 274.01462 199.84655 248.61588 196.68253 222.91714 196.42109 z " />
    </g>
  </g>
  <g
     inkscape:groupmode="layer"
     id="layer3"
     inkscape:label="Mask"
     style="display:none">
    <rect
       style="opacity:0.5;fill:#ff0000;stroke-width:2.4907;stroke-linejoin:round;paint-order:stroke markers fill"
       id="rect2810"
       width="1016"
       height="63.5"
       x="5.6843419e-14"
       y="571.5" />
  </g>
</svg>
