<?xml version="1.0" encoding="UTF-8" standalone="no"?>
<svg
   sodipodi:docname="Waves.svg"
   id="svg8"
   version="1.1"
   viewBox="0 0 1016 635.00001"
   height="2400"
   width="3840"
   xmlns:inkscape="http://www.inkscape.org/namespaces/inkscape"
   xmlns:sodipodi="http://sodipodi.sourceforge.net/DTD/sodipodi-0.dtd"
   xmlns:xlink="http://www.w3.org/1999/xlink"
   xmlns="http://www.w3.org/2000/svg"
   xmlns:svg="http://www.w3.org/2000/svg">
  <defs
     id="defs2">
    <linearGradient
       inkscape:collect="always"
       id="linearGradient9614">
      <stop
         style="stop-color:#2dbbb3;stop-opacity:1"
         offset="0"
         id="stop9610" />
      <stop
         style="stop-color:#2d82bb;stop-opacity:1"
         offset="1"
         id="stop9612" />
    </linearGradient>
    <linearGradient
       inkscape:collect="always"
       xlink:href="#linearGradient9614"
       id="linearGradient9616"
       x1="497.31802"
       y1="-34.427197"
       x2="497.31802"
       y2="587.14044"
       gradientUnits="userSpaceOnUse"
       gradientTransform="scale(1,1.1111111)" />
  </defs>
  <sodipodi:namedview
     inkscape:window-maximized="1"
     inkscape:window-y="27"
     inkscape:window-x="1920"
     inkscape:window-height="1016"
     inkscape:window-width="1920"
     units="px"
     showgrid="false"
     inkscape:document-rotation="0"
     inkscape:current-layer="layer2"
     inkscape:document-units="px"
     inkscape:cy="1442.9398"
     inkscape:cx="1827.4291"
     inkscape:zoom="0.22627417"
     inkscape:pageshadow="2"
     inkscape:pageopacity="0.0"
     borderopacity="1.0"
     bordercolor="#666666"
     pagecolor="#ffffff"
     id="base"
     showguides="false"
     inkscape:pagecheckerboard="0"
     inkscape:showpageshadow="2"
     inkscape:deskcolor="#d1d1d1" />
  <g
     inkscape:groupmode="layer"
     id="layer1"
     inkscape:label="Background"
     style="display:inline">
    <g
       inkscape:groupmode="layer"
       id="layer5"
       inkscape:label="Colour"
       style="display:inline">
      <rect
         style="display:inline;opacity:1;fill:url(#linearGradient9616);fill-opacity:1;stroke:none;stroke-width:2.56127;stroke-linecap:round;stroke-linejoin:round;stroke-miterlimit:4;stroke-dasharray:none;stroke-opacity:1;paint-order:markers fill stroke"
         id="rect957"
         width="1016"
         height="635"
         x="-3.5527137e-15"
         y="0" />
      <rect
         style="display:inline;opacity:0.1;fill:#000000;fill-opacity:1;stroke:none;stroke-width:2.56127;stroke-linecap:round;stroke-linejoin:round;stroke-miterlimit:4;stroke-dasharray:none;stroke-opacity:1;paint-order:markers fill stroke"
         id="rect1903"
         width="1016"
         height="635"
         x="-3.5527137e-15"
         y="0" />
    </g>
    <g
       inkscape:groupmode="layer"
       id="layer2"
       inkscape:label="Waves"
       style="display:inline;opacity:1">
      <path
         style="opacity:0.1;fill:#ffffff;stroke:none;stroke-width:0;stroke-linecap:butt;stroke-linejoin:miter;stroke-miterlimit:4;stroke-dasharray:none;stroke-opacity:1"
         d="m 0,314.39243 c 18.599341,0 -11.065246,-87.76543 281.26877,-105.6247 C 409.13067,200.9564 456.14517,91.031975 650.99202,121.18849 779.45828,141.07126 1016,0 1016,0 H 0 Z"
         id="path3454"
         sodipodi:nodetypes="cssccc" />
      <path
         id="path5017"
         style="opacity:0.2;fill:#ffffff;stroke:none;stroke-width:0;stroke-linecap:butt;stroke-linejoin:miter;stroke-miterlimit:4;stroke-dasharray:none;stroke-opacity:1"
         d="M 222.91714 196.42109 C 113.99325 195.31298 5.3892639e-14 245.61085 0 245.61085 L 0 571.5 L 0 635 L 1016 635 L 1016 571.5 L 1016 456.36853 C 857.20812 456.36853 878.67635 380.64085 734.73139 380.64085 C 602.40405 380.64085 504.42599 386.0911 365.00821 246.67332 C 328.09926 209.76436 276.11253 196.96226 222.91714 196.42109 z " />
      <path
         id="path5922"
         style="opacity:0.2;fill:#ffffff;stroke:none;stroke-width:0;stroke-linecap:butt;stroke-linejoin:miter;stroke-miterlimit:4;stroke-dasharray:none;stroke-opacity:1"
         d="M 1016 245.61085 C 1016 245.61085 849.24141 282.12665 785.43475 384.56206 C 784.39638 386.22906 783.38299 387.91242 782.40031 389.61446 C 774.18124 403.85031 763.71314 414.73627 751.51537 423.21603 C 749.99065 424.276 748.43864 425.29795 746.86088 426.28458 C 732.66113 435.16412 716.35414 441.14871 698.67984 445.58159 C 694.75218 446.56668 690.75689 447.47483 686.70228 448.32148 C 658.32009 454.24793 627.02599 457.14432 595.60344 462.07051 C 588.87 463.12612 582.1303 464.27509 575.41243 465.56693 C 566.45526 467.28941 557.53641 469.26614 548.72052 471.61514 C 544.31257 472.78964 539.93059 474.05709 535.5823 475.43248 C 529.05987 477.49558 522.61338 479.8014 516.27082 482.3995 C 512.04244 484.13156 507.86019 485.99346 503.73205 488.00019 C 499.6039 490.00692 495.53001 492.15814 491.51832 494.46905 C 487.50663 496.77995 483.55722 499.25037 479.67822 501.89495 C 477.73871 503.21724 475.81649 504.5832 473.9132 505.99444 C 472.01002 507.40561 470.12525 508.86247 468.26031 510.36627 C 464.53021 513.37404 460.87865 516.5709 457.31369 519.97137 C 455.53112 521.67169 453.7706 523.42282 452.03236 525.22686 C 445.07976 532.44262 438.48984 540.50251 432.32762 549.52512 C 429.2465 554.03643 426.2721 558.78828 423.41292 563.79557 C 421.98333 566.2992 420.58269 568.86684 419.21162 571.5 C 403.07155 596.95926 364.21653 600.19013 364.21653 635 L 1016 635 L 1016 571.5 L 1016 456.36853 L 1016 245.61085 z " />
      <path
         id="path6726"
         style="opacity:0.1;fill:#ffffff;stroke:none;stroke-width:0;stroke-linecap:butt;stroke-linejoin:miter;stroke-miterlimit:4;stroke-dasharray:none;stroke-opacity:1"
         d="M 0 377.11083 L 0 571.5 L 0 635 L 52.980746 635 L 341.92073 635 C 343.4278 606.86323 307.59027 606.02909 293.94433 571.5 C 255.77702 478.15177 197.19542 529.91498 136.78028 501.7301 C 92.321035 480.98896 114.28927 377.11083 0 377.11083 z " />
    </g>
  </g>
  <g
     inkscape:groupmode="layer"
     id="layer3"
     inkscape:label="Mask"
     style="display:none">
    <rect
       style="opacity:0.5;fill:#ff0000;stroke-width:2.4907;stroke-linejoin:round;paint-order:stroke markers fill"
       id="rect2810"
       width="1016"
       height="63.5"
       x="5.6843419e-14"
       y="571.5" />
  </g>
</svg>
